<mxfile host="app.diagrams.net" modified="2024-03-23T11:37:41.037Z" agent="Mozilla/5.0 (Windows NT 10.0; Win64; x64) AppleWebKit/537.36 (KHTML, like Gecko) Chrome/122.0.0.0 Safari/537.36 Edg/122.0.0.0" etag="5EfQXJdTMZ5sOKKJVRac" version="24.0.7" type="device">
  <diagram id="C5RBs43oDa-KdzZeNtuy" name="Page-1">
    <mxGraphModel dx="1928" dy="1258" grid="1" gridSize="10" guides="1" tooltips="1" connect="1" arrows="1" fold="1" page="1" pageScale="1" pageWidth="1169" pageHeight="827" math="0" shadow="0">
      <root>
        <mxCell id="WIyWlLk6GJQsqaUBKTNV-0" />
        <mxCell id="WIyWlLk6GJQsqaUBKTNV-1" parent="WIyWlLk6GJQsqaUBKTNV-0" />
        <mxCell id="jbJda18QJr-1W6zUJkBC-4" value="Partie" style="swimlane;fontStyle=1;align=center;verticalAlign=top;childLayout=stackLayout;horizontal=1;startSize=26;horizontalStack=0;resizeParent=1;resizeParentMax=0;resizeLast=0;collapsible=1;marginBottom=0;whiteSpace=wrap;html=1;" parent="WIyWlLk6GJQsqaUBKTNV-1" vertex="1">
          <mxGeometry x="455" y="510" width="225" height="262" as="geometry" />
        </mxCell>
        <mxCell id="jbJda18QJr-1W6zUJkBC-9" value="solde_militaire : signed int" style="text;strokeColor=none;fillColor=none;align=left;verticalAlign=top;spacingLeft=4;spacingRight=4;overflow=hidden;rotatable=0;points=[[0,0.5],[1,0.5]];portConstraint=eastwest;whiteSpace=wrap;html=1;fontFamily=Helvetica;fontSize=13;" parent="jbJda18QJr-1W6zUJkBC-4" vertex="1">
          <mxGeometry y="26" width="225" height="26" as="geometry" />
        </mxCell>
        <mxCell id="jbJda18QJr-1W6zUJkBC-8" value="nb_tours : int" style="text;strokeColor=none;fillColor=none;align=left;verticalAlign=top;spacingLeft=4;spacingRight=4;overflow=hidden;rotatable=0;points=[[0,0.5],[1,0.5]];portConstraint=eastwest;whiteSpace=wrap;html=1;fontFamily=Helvetica;fontSize=13;" parent="jbJda18QJr-1W6zUJkBC-4" vertex="1">
          <mxGeometry y="52" width="225" height="26" as="geometry" />
        </mxCell>
        <mxCell id="jbJda18QJr-1W6zUJkBC-5" value="age : {1, 2, 3}" style="text;strokeColor=none;fillColor=none;align=left;verticalAlign=top;spacingLeft=4;spacingRight=4;overflow=hidden;rotatable=0;points=[[0,0.5],[1,0.5]];portConstraint=eastwest;whiteSpace=wrap;html=1;fontFamily=Helvetica;fontSize=13;" parent="jbJda18QJr-1W6zUJkBC-4" vertex="1">
          <mxGeometry y="78" width="225" height="26" as="geometry" />
        </mxCell>
        <mxCell id="jbJda18QJr-1W6zUJkBC-13" value="nb_merveilles : {1, 2, 3, 4, 5, 6, 7}" style="text;strokeColor=none;fillColor=none;align=left;verticalAlign=top;spacingLeft=4;spacingRight=4;overflow=hidden;rotatable=0;points=[[0,0.5],[1,0.5]];portConstraint=eastwest;whiteSpace=wrap;html=1;fontFamily=Helvetica;fontSize=13;" parent="jbJda18QJr-1W6zUJkBC-4" vertex="1">
          <mxGeometry y="104" width="225" height="36" as="geometry" />
        </mxCell>
        <mxCell id="jbJda18QJr-1W6zUJkBC-14" value="tour : {1, 2}" style="text;strokeColor=none;fillColor=none;align=left;verticalAlign=top;spacingLeft=4;spacingRight=4;overflow=hidden;rotatable=0;points=[[0,0.5],[1,0.5]];portConstraint=eastwest;whiteSpace=wrap;html=1;fontFamily=Helvetica;fontSize=13;" parent="jbJda18QJr-1W6zUJkBC-4" vertex="1">
          <mxGeometry y="140" width="225" height="36" as="geometry" />
        </mxCell>
        <mxCell id="jbJda18QJr-1W6zUJkBC-6" value="" style="line;strokeWidth=1;fillColor=none;align=left;verticalAlign=middle;spacingTop=-1;spacingLeft=3;spacingRight=3;rotatable=0;labelPosition=right;points=[];portConstraint=eastwest;strokeColor=inherit;" parent="jbJda18QJr-1W6zUJkBC-4" vertex="1">
          <mxGeometry y="176" width="225" height="8" as="geometry" />
        </mxCell>
        <mxCell id="jbJda18QJr-1W6zUJkBC-7" value="&lt;span style=&quot;font-family: sans-serif; font-size: 14px; text-wrap: nowrap; background-color: rgb(255, 255, 255);&quot;&gt;choix_batiment():void&lt;/span&gt;" style="text;strokeColor=none;fillColor=none;align=left;verticalAlign=top;spacingLeft=4;spacingRight=4;overflow=hidden;rotatable=0;points=[[0,0.5],[1,0.5]];portConstraint=eastwest;whiteSpace=wrap;html=1;" parent="jbJda18QJr-1W6zUJkBC-4" vertex="1">
          <mxGeometry y="184" width="225" height="26" as="geometry" />
        </mxCell>
        <mxCell id="WAtbVeIMvl0ufXx72fuo-101" value="&lt;div&gt;&lt;font face=&quot;sans-serif&quot;&gt;&lt;span style=&quot;font-size: 14px; text-wrap: nowrap;&quot;&gt;choix_jeton_progres():void&lt;/span&gt;&lt;/font&gt;&lt;/div&gt;&lt;div&gt;&lt;br&gt;&lt;/div&gt;" style="text;strokeColor=none;fillColor=none;align=left;verticalAlign=top;spacingLeft=4;spacingRight=4;overflow=hidden;rotatable=0;points=[[0,0.5],[1,0.5]];portConstraint=eastwest;whiteSpace=wrap;html=1;" vertex="1" parent="jbJda18QJr-1W6zUJkBC-4">
          <mxGeometry y="210" width="225" height="26" as="geometry" />
        </mxCell>
        <mxCell id="WAtbVeIMvl0ufXx72fuo-103" value="&lt;div&gt;&lt;font face=&quot;sans-serif&quot;&gt;&lt;span style=&quot;font-size: 14px; text-wrap: nowrap;&quot;&gt;choix_jeton_progres():void&lt;/span&gt;&lt;/font&gt;&lt;/div&gt;&lt;div&gt;&lt;br&gt;&lt;/div&gt;" style="text;strokeColor=none;fillColor=none;align=left;verticalAlign=top;spacingLeft=4;spacingRight=4;overflow=hidden;rotatable=0;points=[[0,0.5],[1,0.5]];portConstraint=eastwest;whiteSpace=wrap;html=1;" vertex="1" parent="jbJda18QJr-1W6zUJkBC-4">
          <mxGeometry y="236" width="225" height="26" as="geometry" />
        </mxCell>
        <mxCell id="jbJda18QJr-1W6zUJkBC-16" value="Jeton" style="swimlane;fontStyle=1;align=center;verticalAlign=top;childLayout=stackLayout;horizontal=1;startSize=26;horizontalStack=0;resizeParent=1;resizeParentMax=0;resizeLast=0;collapsible=1;marginBottom=0;whiteSpace=wrap;html=1;" parent="WIyWlLk6GJQsqaUBKTNV-1" vertex="1">
          <mxGeometry x="375" y="282" width="160" height="86" as="geometry" />
        </mxCell>
        <mxCell id="jbJda18QJr-1W6zUJkBC-17" value="#nom : string" style="text;strokeColor=none;fillColor=none;align=left;verticalAlign=top;spacingLeft=4;spacingRight=4;overflow=hidden;rotatable=0;points=[[0,0.5],[1,0.5]];portConstraint=eastwest;whiteSpace=wrap;html=1;fontFamily=Helvetica;fontSize=13;" parent="jbJda18QJr-1W6zUJkBC-16" vertex="1">
          <mxGeometry y="26" width="160" height="26" as="geometry" />
        </mxCell>
        <mxCell id="jbJda18QJr-1W6zUJkBC-20" value="en_jeu : bool" style="text;strokeColor=none;fillColor=none;align=left;verticalAlign=top;spacingLeft=4;spacingRight=4;overflow=hidden;rotatable=0;points=[[0,0.5],[1,0.5]];portConstraint=eastwest;whiteSpace=wrap;html=1;fontFamily=Helvetica;fontSize=13;" parent="jbJda18QJr-1W6zUJkBC-16" vertex="1">
          <mxGeometry y="52" width="160" height="26" as="geometry" />
        </mxCell>
        <mxCell id="jbJda18QJr-1W6zUJkBC-18" value="" style="line;strokeWidth=1;fillColor=none;align=left;verticalAlign=middle;spacingTop=-1;spacingLeft=3;spacingRight=3;rotatable=0;labelPosition=right;points=[];portConstraint=eastwest;strokeColor=inherit;" parent="jbJda18QJr-1W6zUJkBC-16" vertex="1">
          <mxGeometry y="78" width="160" height="8" as="geometry" />
        </mxCell>
        <mxCell id="jbJda18QJr-1W6zUJkBC-24" value="" style="endArrow=block;endSize=16;endFill=0;html=1;rounded=0;edgeStyle=elbowEdgeStyle;" parent="WIyWlLk6GJQsqaUBKTNV-1" edge="1">
          <mxGeometry width="160" relative="1" as="geometry">
            <mxPoint x="535" y="320" as="sourcePoint" />
            <mxPoint x="635" y="230" as="targetPoint" />
          </mxGeometry>
        </mxCell>
        <mxCell id="jbJda18QJr-1W6zUJkBC-25" value="Jeton Militaire" style="swimlane;fontStyle=1;align=center;verticalAlign=top;childLayout=stackLayout;horizontal=1;startSize=26;horizontalStack=0;resizeParent=1;resizeParentMax=0;resizeLast=0;collapsible=1;marginBottom=0;whiteSpace=wrap;html=1;" parent="WIyWlLk6GJQsqaUBKTNV-1" vertex="1">
          <mxGeometry x="635" y="190" width="160" height="60" as="geometry" />
        </mxCell>
        <mxCell id="jbJda18QJr-1W6zUJkBC-26" value="argent : int" style="text;strokeColor=none;fillColor=none;align=left;verticalAlign=top;spacingLeft=4;spacingRight=4;overflow=hidden;rotatable=0;points=[[0,0.5],[1,0.5]];portConstraint=eastwest;whiteSpace=wrap;html=1;fontFamily=Helvetica;fontSize=13;" parent="jbJda18QJr-1W6zUJkBC-25" vertex="1">
          <mxGeometry y="26" width="160" height="26" as="geometry" />
        </mxCell>
        <mxCell id="jbJda18QJr-1W6zUJkBC-28" value="" style="line;strokeWidth=1;fillColor=none;align=left;verticalAlign=middle;spacingTop=-1;spacingLeft=3;spacingRight=3;rotatable=0;labelPosition=right;points=[];portConstraint=eastwest;strokeColor=inherit;" parent="jbJda18QJr-1W6zUJkBC-25" vertex="1">
          <mxGeometry y="52" width="160" height="8" as="geometry" />
        </mxCell>
        <mxCell id="jbJda18QJr-1W6zUJkBC-29" value="" style="endArrow=block;endSize=16;endFill=0;html=1;rounded=0;edgeStyle=elbowEdgeStyle;exitX=1;exitY=0.5;exitDx=0;exitDy=0;entryX=0;entryY=0.5;entryDx=0;entryDy=0;" parent="WIyWlLk6GJQsqaUBKTNV-1" source="jbJda18QJr-1W6zUJkBC-17" edge="1">
          <mxGeometry width="160" relative="1" as="geometry">
            <mxPoint x="535" y="501" as="sourcePoint" />
            <mxPoint x="635" y="409.0000000000001" as="targetPoint" />
          </mxGeometry>
        </mxCell>
        <mxCell id="jbJda18QJr-1W6zUJkBC-30" value="Jeton ProgrÃ¨s" style="swimlane;fontStyle=1;align=center;verticalAlign=top;childLayout=stackLayout;horizontal=1;startSize=26;horizontalStack=0;resizeParent=1;resizeParentMax=0;resizeLast=0;collapsible=1;marginBottom=0;whiteSpace=wrap;html=1;" parent="WIyWlLk6GJQsqaUBKTNV-1" vertex="1">
          <mxGeometry x="635" y="390" width="160" height="34" as="geometry">
            <mxRectangle x="980" y="330" width="110" height="30" as="alternateBounds" />
          </mxGeometry>
        </mxCell>
        <mxCell id="jbJda18QJr-1W6zUJkBC-32" value="" style="line;strokeWidth=1;fillColor=none;align=left;verticalAlign=middle;spacingTop=-1;spacingLeft=3;spacingRight=3;rotatable=0;labelPosition=right;points=[];portConstraint=eastwest;strokeColor=inherit;" parent="jbJda18QJr-1W6zUJkBC-30" vertex="1">
          <mxGeometry y="26" width="160" height="8" as="geometry" />
        </mxCell>
        <mxCell id="jbJda18QJr-1W6zUJkBC-41" value="" style="endArrow=none;shadow=0;strokeWidth=1;rounded=0;curved=0;endFill=0;edgeStyle=elbowEdgeStyle;elbow=vertical;entryX=0.5;entryY=1;entryDx=0;entryDy=0;exitX=0.5;exitY=0;exitDx=0;exitDy=0;" parent="WIyWlLk6GJQsqaUBKTNV-1" source="jbJda18QJr-1W6zUJkBC-4" target="jbJda18QJr-1W6zUJkBC-30" edge="1">
          <mxGeometry x="0.5" y="41" relative="1" as="geometry">
            <mxPoint x="335" y="454" as="sourcePoint" />
            <mxPoint x="463" y="454" as="targetPoint" />
            <mxPoint x="-40" y="32" as="offset" />
          </mxGeometry>
        </mxCell>
        <mxCell id="jbJda18QJr-1W6zUJkBC-42" value="*" style="resizable=0;align=left;verticalAlign=bottom;labelBackgroundColor=none;fontSize=12;" parent="jbJda18QJr-1W6zUJkBC-41" connectable="0" vertex="1">
          <mxGeometry x="-1" relative="1" as="geometry">
            <mxPoint x="10" y="-2" as="offset" />
          </mxGeometry>
        </mxCell>
        <mxCell id="jbJda18QJr-1W6zUJkBC-43" value="5" style="resizable=0;align=right;verticalAlign=bottom;labelBackgroundColor=none;fontSize=12;" parent="jbJda18QJr-1W6zUJkBC-41" connectable="0" vertex="1">
          <mxGeometry x="1" relative="1" as="geometry">
            <mxPoint x="20" y="26" as="offset" />
          </mxGeometry>
        </mxCell>
        <mxCell id="jbJda18QJr-1W6zUJkBC-44" value="mis_en_jeu" style="text;html=1;resizable=0;points=[];;align=center;verticalAlign=middle;labelBackgroundColor=none;rounded=0;shadow=0;strokeWidth=1;fontSize=12;" parent="jbJda18QJr-1W6zUJkBC-41" vertex="1" connectable="0">
          <mxGeometry x="0.5" y="49" relative="1" as="geometry">
            <mxPoint x="-66" y="40" as="offset" />
          </mxGeometry>
        </mxCell>
        <mxCell id="jbJda18QJr-1W6zUJkBC-45" value="CitÃ©" style="swimlane;fontStyle=1;align=center;verticalAlign=top;childLayout=stackLayout;horizontal=1;startSize=26;horizontalStack=0;resizeParent=1;resizeParentMax=0;resizeLast=0;collapsible=1;marginBottom=0;whiteSpace=wrap;html=1;" parent="WIyWlLk6GJQsqaUBKTNV-1" vertex="1">
          <mxGeometry x="370" y="-150" width="170" height="390" as="geometry" />
        </mxCell>
        <mxCell id="jbJda18QJr-1W6zUJkBC-46" value="type : {h, ia}" style="text;strokeColor=none;fillColor=none;align=left;verticalAlign=top;spacingLeft=4;spacingRight=4;overflow=hidden;rotatable=0;points=[[0,0.5],[1,0.5]];portConstraint=eastwest;whiteSpace=wrap;html=1;fontFamily=Helvetica;fontSize=13;" parent="jbJda18QJr-1W6zUJkBC-45" vertex="1">
          <mxGeometry y="26" width="170" height="22" as="geometry" />
        </mxCell>
        <mxCell id="jbJda18QJr-1W6zUJkBC-47" value="points_victoire : int" style="text;strokeColor=none;fillColor=none;align=left;verticalAlign=top;spacingLeft=4;spacingRight=4;overflow=hidden;rotatable=0;points=[[0,0.5],[1,0.5]];portConstraint=eastwest;whiteSpace=wrap;html=1;fontFamily=Helvetica;fontSize=13;" parent="jbJda18QJr-1W6zUJkBC-45" vertex="1">
          <mxGeometry y="48" width="170" height="26" as="geometry" />
        </mxCell>
        <mxCell id="jbJda18QJr-1W6zUJkBC-48" value="argent : int" style="text;strokeColor=none;fillColor=none;align=left;verticalAlign=top;spacingLeft=4;spacingRight=4;overflow=hidden;rotatable=0;points=[[0,0.5],[1,0.5]];portConstraint=eastwest;whiteSpace=wrap;html=1;fontFamily=Helvetica;fontSize=13;" parent="jbJda18QJr-1W6zUJkBC-45" vertex="1">
          <mxGeometry y="74" width="170" height="26" as="geometry" />
        </mxCell>
        <mxCell id="jbJda18QJr-1W6zUJkBC-49" value="Ressources : Ressources" style="text;strokeColor=none;fillColor=none;align=left;verticalAlign=top;spacingLeft=4;spacingRight=4;overflow=hidden;rotatable=0;points=[[0,0.5],[1,0.5]];portConstraint=eastwest;whiteSpace=wrap;html=1;fontFamily=Helvetica;fontSize=13;" parent="jbJda18QJr-1W6zUJkBC-45" vertex="1">
          <mxGeometry y="100" width="170" height="30" as="geometry" />
        </mxCell>
        <mxCell id="jbJda18QJr-1W6zUJkBC-50" value="tour : {1, 2}" style="text;strokeColor=none;fillColor=none;align=left;verticalAlign=top;spacingLeft=4;spacingRight=4;overflow=hidden;rotatable=0;points=[[0,0.5],[1,0.5]];portConstraint=eastwest;whiteSpace=wrap;html=1;fontFamily=Helvetica;fontSize=13;" parent="jbJda18QJr-1W6zUJkBC-45" vertex="1">
          <mxGeometry y="130" width="170" height="30" as="geometry" />
        </mxCell>
        <mxCell id="jbJda18QJr-1W6zUJkBC-51" value="" style="line;strokeWidth=1;fillColor=none;align=left;verticalAlign=middle;spacingTop=-1;spacingLeft=3;spacingRight=3;rotatable=0;labelPosition=right;points=[];portConstraint=eastwest;strokeColor=inherit;" parent="jbJda18QJr-1W6zUJkBC-45" vertex="1">
          <mxGeometry y="160" width="170" height="8" as="geometry" />
        </mxCell>
        <mxCell id="jbJda18QJr-1W6zUJkBC-52" value="nb_symboles : int" style="text;strokeColor=none;fillColor=none;align=left;verticalAlign=top;spacingLeft=4;spacingRight=4;overflow=hidden;rotatable=0;points=[[0,0.5],[1,0.5]];portConstraint=eastwest;whiteSpace=wrap;html=1;fontFamily=Helvetica;fontSize=13;" parent="jbJda18QJr-1W6zUJkBC-45" vertex="1">
          <mxGeometry y="168" width="170" height="26" as="geometry" />
        </mxCell>
        <mxCell id="jbJda18QJr-1W6zUJkBC-59" value="double_symbole : int" style="text;strokeColor=none;fillColor=none;align=left;verticalAlign=top;spacingLeft=4;spacingRight=4;overflow=hidden;rotatable=0;points=[[0,0.5],[1,0.5]];portConstraint=eastwest;whiteSpace=wrap;html=1;fontFamily=Helvetica;fontSize=13;" parent="jbJda18QJr-1W6zUJkBC-45" vertex="1">
          <mxGeometry y="194" width="170" height="26" as="geometry" />
        </mxCell>
        <mxCell id="jbJda18QJr-1W6zUJkBC-60" value="possede_chainage : bool" style="text;strokeColor=none;fillColor=none;align=left;verticalAlign=top;spacingLeft=4;spacingRight=4;overflow=hidden;rotatable=0;points=[[0,0.5],[1,0.5]];portConstraint=eastwest;whiteSpace=wrap;html=1;fontFamily=Helvetica;fontSize=13;" parent="jbJda18QJr-1W6zUJkBC-45" vertex="1">
          <mxGeometry y="220" width="170" height="26" as="geometry" />
        </mxCell>
        <mxCell id="jbJda18QJr-1W6zUJkBC-61" value="get(couleur 1, couleur2) :&lt;div&gt;&amp;nbsp;bool&lt;/div&gt;" style="text;strokeColor=none;fillColor=none;align=left;verticalAlign=top;spacingLeft=4;spacingRight=4;overflow=hidden;rotatable=0;points=[[0,0.5],[1,0.5]];portConstraint=eastwest;whiteSpace=wrap;html=1;fontFamily=Helvetica;fontSize=13;" parent="jbJda18QJr-1W6zUJkBC-45" vertex="1">
          <mxGeometry y="246" width="170" height="44" as="geometry" />
        </mxCell>
        <mxCell id="jbJda18QJr-1W6zUJkBC-62" value="get(couleur) : bool" style="text;strokeColor=none;fillColor=none;align=left;verticalAlign=top;spacingLeft=4;spacingRight=4;overflow=hidden;rotatable=0;points=[[0,0.5],[1,0.5]];portConstraint=eastwest;whiteSpace=wrap;html=1;fontFamily=Helvetica;fontSize=13;" parent="jbJda18QJr-1W6zUJkBC-45" vertex="1">
          <mxGeometry y="290" width="170" height="26" as="geometry" />
        </mxCell>
        <mxCell id="jbJda18QJr-1W6zUJkBC-63" value="prix_fixe(ressource) : bool" style="text;strokeColor=none;fillColor=none;align=left;verticalAlign=top;spacingLeft=4;spacingRight=4;overflow=hidden;rotatable=0;points=[[0,0.5],[1,0.5]];portConstraint=eastwest;whiteSpace=wrap;html=1;fontFamily=Helvetica;fontSize=13;" parent="jbJda18QJr-1W6zUJkBC-45" vertex="1">
          <mxGeometry y="316" width="170" height="26" as="geometry" />
        </mxCell>
        <mxCell id="jbJda18QJr-1W6zUJkBC-53" value="get_ressources_adversaire : ressource" style="text;strokeColor=none;fillColor=none;align=left;verticalAlign=top;spacingLeft=4;spacingRight=4;overflow=hidden;rotatable=0;points=[[0,0.5],[1,0.5]];portConstraint=eastwest;whiteSpace=wrap;html=1;fontFamily=Helvetica;fontSize=13;" parent="jbJda18QJr-1W6zUJkBC-45" vertex="1">
          <mxGeometry y="342" width="170" height="48" as="geometry" />
        </mxCell>
        <mxCell id="jbJda18QJr-1W6zUJkBC-54" value="" style="endArrow=none;shadow=0;strokeWidth=1;rounded=0;endFill=0;edgeStyle=elbowEdgeStyle;entryX=1;entryY=0.5;entryDx=0;entryDy=0;exitX=1;exitY=0.5;exitDx=0;exitDy=0;" parent="WIyWlLk6GJQsqaUBKTNV-1" source="jbJda18QJr-1W6zUJkBC-30" target="jbJda18QJr-1W6zUJkBC-48" edge="1">
          <mxGeometry x="0.5" y="41" relative="1" as="geometry">
            <mxPoint x="1000" y="110" as="sourcePoint" />
            <mxPoint x="630" y="-10" as="targetPoint" />
            <mxPoint x="-40" y="32" as="offset" />
            <Array as="points">
              <mxPoint x="840" y="170" />
            </Array>
          </mxGeometry>
        </mxCell>
        <mxCell id="jbJda18QJr-1W6zUJkBC-55" value="*" style="resizable=0;align=left;verticalAlign=bottom;labelBackgroundColor=none;fontSize=12;" parent="jbJda18QJr-1W6zUJkBC-54" connectable="0" vertex="1">
          <mxGeometry x="-1" relative="1" as="geometry">
            <mxPoint x="10" y="-2" as="offset" />
          </mxGeometry>
        </mxCell>
        <mxCell id="jbJda18QJr-1W6zUJkBC-56" value="1" style="resizable=0;align=right;verticalAlign=bottom;labelBackgroundColor=none;fontSize=12;" parent="jbJda18QJr-1W6zUJkBC-54" connectable="0" vertex="1">
          <mxGeometry x="1" relative="1" as="geometry">
            <mxPoint x="40" y="26" as="offset" />
          </mxGeometry>
        </mxCell>
        <mxCell id="jbJda18QJr-1W6zUJkBC-57" value="possede" style="text;html=1;resizable=0;points=[];;align=center;verticalAlign=middle;labelBackgroundColor=none;rounded=0;shadow=0;strokeWidth=1;fontSize=12;" parent="jbJda18QJr-1W6zUJkBC-54" vertex="1" connectable="0">
          <mxGeometry x="0.5" y="49" relative="1" as="geometry">
            <mxPoint x="66" y="174" as="offset" />
          </mxGeometry>
        </mxCell>
        <mxCell id="jbJda18QJr-1W6zUJkBC-64" value="" style="endArrow=none;shadow=0;strokeWidth=1;rounded=0;endFill=0;edgeStyle=elbowEdgeStyle;entryX=1;entryY=0.5;entryDx=0;entryDy=0;exitX=1;exitY=0.5;exitDx=0;exitDy=0;" parent="WIyWlLk6GJQsqaUBKTNV-1" source="jbJda18QJr-1W6zUJkBC-9" target="jbJda18QJr-1W6zUJkBC-47" edge="1">
          <mxGeometry x="0.5" y="41" relative="1" as="geometry">
            <mxPoint x="995" y="390" as="sourcePoint" />
            <mxPoint x="740" y="-130" as="targetPoint" />
            <mxPoint x="-40" y="32" as="offset" />
            <Array as="points">
              <mxPoint x="910" y="220" />
            </Array>
          </mxGeometry>
        </mxCell>
        <mxCell id="jbJda18QJr-1W6zUJkBC-65" value="*" style="resizable=0;align=left;verticalAlign=bottom;labelBackgroundColor=none;fontSize=12;" parent="jbJda18QJr-1W6zUJkBC-64" connectable="0" vertex="1">
          <mxGeometry x="-1" relative="1" as="geometry">
            <mxPoint x="10" y="-2" as="offset" />
          </mxGeometry>
        </mxCell>
        <mxCell id="jbJda18QJr-1W6zUJkBC-66" value="1" style="resizable=0;align=right;verticalAlign=bottom;labelBackgroundColor=none;fontSize=12;" parent="jbJda18QJr-1W6zUJkBC-64" connectable="0" vertex="1">
          <mxGeometry x="1" relative="1" as="geometry">
            <mxPoint x="20" y="19" as="offset" />
          </mxGeometry>
        </mxCell>
        <mxCell id="jbJda18QJr-1W6zUJkBC-67" value="vainqueur" style="text;html=1;resizable=0;points=[];;align=center;verticalAlign=middle;labelBackgroundColor=none;rounded=0;shadow=0;strokeWidth=1;fontSize=12;" parent="jbJda18QJr-1W6zUJkBC-64" vertex="1" connectable="0">
          <mxGeometry x="0.5" y="49" relative="1" as="geometry">
            <mxPoint x="4" y="240" as="offset" />
          </mxGeometry>
        </mxCell>
        <mxCell id="jbJda18QJr-1W6zUJkBC-70" value="" style="endArrow=none;shadow=0;strokeWidth=1;rounded=0;endFill=0;edgeStyle=elbowEdgeStyle;entryX=1;entryY=0.5;entryDx=0;entryDy=0;exitX=1;exitY=0.5;exitDx=0;exitDy=0;" parent="WIyWlLk6GJQsqaUBKTNV-1" source="jbJda18QJr-1W6zUJkBC-8" target="jbJda18QJr-1W6zUJkBC-46" edge="1">
          <mxGeometry x="0.5" y="41" relative="1" as="geometry">
            <mxPoint x="625" y="559" as="sourcePoint" />
            <mxPoint x="550" y="-79" as="targetPoint" />
            <mxPoint x="-40" y="32" as="offset" />
            <Array as="points">
              <mxPoint x="970" y="230" />
            </Array>
          </mxGeometry>
        </mxCell>
        <mxCell id="jbJda18QJr-1W6zUJkBC-71" value="*" style="resizable=0;align=left;verticalAlign=bottom;labelBackgroundColor=none;fontSize=12;" parent="jbJda18QJr-1W6zUJkBC-70" connectable="0" vertex="1">
          <mxGeometry x="-1" relative="1" as="geometry">
            <mxPoint x="10" y="-2" as="offset" />
          </mxGeometry>
        </mxCell>
        <mxCell id="jbJda18QJr-1W6zUJkBC-72" value="1" style="resizable=0;align=right;verticalAlign=bottom;labelBackgroundColor=none;fontSize=12;" parent="jbJda18QJr-1W6zUJkBC-70" connectable="0" vertex="1">
          <mxGeometry x="1" relative="1" as="geometry">
            <mxPoint x="20" y="19" as="offset" />
          </mxGeometry>
        </mxCell>
        <mxCell id="jbJda18QJr-1W6zUJkBC-73" value="perdant" style="text;html=1;resizable=0;points=[];;align=center;verticalAlign=middle;labelBackgroundColor=none;rounded=0;shadow=0;strokeWidth=1;fontSize=12;" parent="jbJda18QJr-1W6zUJkBC-70" vertex="1" connectable="0">
          <mxGeometry x="0.5" y="49" relative="1" as="geometry">
            <mxPoint x="32" y="284" as="offset" />
          </mxGeometry>
        </mxCell>
        <mxCell id="jbJda18QJr-1W6zUJkBC-74" value="Batiments" style="swimlane;fontStyle=1;align=center;verticalAlign=top;childLayout=stackLayout;horizontal=1;startSize=26;horizontalStack=0;resizeParent=1;resizeParentMax=0;resizeLast=0;collapsible=1;marginBottom=0;whiteSpace=wrap;html=1;" parent="WIyWlLk6GJQsqaUBKTNV-1" vertex="1">
          <mxGeometry x="-100" y="130" width="170" height="130" as="geometry" />
        </mxCell>
        <mxCell id="jbJda18QJr-1W6zUJkBC-88" value="#nom : string" style="text;strokeColor=none;fillColor=none;align=left;verticalAlign=top;spacingLeft=4;spacingRight=4;overflow=hidden;rotatable=0;points=[[0,0.5],[1,0.5]];portConstraint=eastwest;whiteSpace=wrap;html=1;fontFamily=Helvetica;fontSize=13;" parent="jbJda18QJr-1W6zUJkBC-74" vertex="1">
          <mxGeometry y="26" width="170" height="22" as="geometry" />
        </mxCell>
        <mxCell id="jbJda18QJr-1W6zUJkBC-75" value="age : {1, 2, 3}" style="text;strokeColor=none;fillColor=none;align=left;verticalAlign=top;spacingLeft=4;spacingRight=4;overflow=hidden;rotatable=0;points=[[0,0.5],[1,0.5]];portConstraint=eastwest;whiteSpace=wrap;html=1;fontFamily=Helvetica;fontSize=13;" parent="jbJda18QJr-1W6zUJkBC-74" vertex="1">
          <mxGeometry y="48" width="170" height="22" as="geometry" />
        </mxCell>
        <mxCell id="jbJda18QJr-1W6zUJkBC-76" value="enjeu : bool" style="text;strokeColor=none;fillColor=none;align=left;verticalAlign=top;spacingLeft=4;spacingRight=4;overflow=hidden;rotatable=0;points=[[0,0.5],[1,0.5]];portConstraint=eastwest;whiteSpace=wrap;html=1;fontFamily=Helvetica;fontSize=13;" parent="jbJda18QJr-1W6zUJkBC-74" vertex="1">
          <mxGeometry y="70" width="170" height="26" as="geometry" />
        </mxCell>
        <mxCell id="jbJda18QJr-1W6zUJkBC-77" value="accessible : bool" style="text;strokeColor=none;fillColor=none;align=left;verticalAlign=top;spacingLeft=4;spacingRight=4;overflow=hidden;rotatable=0;points=[[0,0.5],[1,0.5]];portConstraint=eastwest;whiteSpace=wrap;html=1;fontFamily=Helvetica;fontSize=13;" parent="jbJda18QJr-1W6zUJkBC-74" vertex="1">
          <mxGeometry y="96" width="170" height="26" as="geometry" />
        </mxCell>
        <mxCell id="jbJda18QJr-1W6zUJkBC-80" value="" style="line;strokeWidth=1;fillColor=none;align=left;verticalAlign=middle;spacingTop=-1;spacingLeft=3;spacingRight=3;rotatable=0;labelPosition=right;points=[];portConstraint=eastwest;strokeColor=inherit;" parent="jbJda18QJr-1W6zUJkBC-74" vertex="1">
          <mxGeometry y="122" width="170" height="8" as="geometry" />
        </mxCell>
        <mxCell id="jbJda18QJr-1W6zUJkBC-103" value="" style="endArrow=none;shadow=0;strokeWidth=1;rounded=0;endFill=0;edgeStyle=elbowEdgeStyle;exitX=0;exitY=0.5;exitDx=0;exitDy=0;entryX=0;entryY=0.5;entryDx=0;entryDy=0;" parent="jbJda18QJr-1W6zUJkBC-74" source="jbJda18QJr-1W6zUJkBC-76" target="jbJda18QJr-1W6zUJkBC-88" edge="1">
          <mxGeometry x="0.5" y="41" relative="1" as="geometry">
            <mxPoint x="-240" y="16" as="sourcePoint" />
            <mxPoint x="-30" y="20" as="targetPoint" />
            <mxPoint x="-40" y="32" as="offset" />
            <Array as="points">
              <mxPoint x="-100" y="70" />
            </Array>
          </mxGeometry>
        </mxCell>
        <mxCell id="jbJda18QJr-1W6zUJkBC-104" value="*" style="resizable=0;align=left;verticalAlign=bottom;labelBackgroundColor=none;fontSize=12;" parent="jbJda18QJr-1W6zUJkBC-103" connectable="0" vertex="1">
          <mxGeometry x="-1" relative="1" as="geometry">
            <mxPoint x="-20" y="-3" as="offset" />
          </mxGeometry>
        </mxCell>
        <mxCell id="jbJda18QJr-1W6zUJkBC-105" value="*" style="resizable=0;align=right;verticalAlign=bottom;labelBackgroundColor=none;fontSize=12;" parent="jbJda18QJr-1W6zUJkBC-103" connectable="0" vertex="1">
          <mxGeometry x="1" relative="1" as="geometry">
            <mxPoint x="-10" y="23" as="offset" />
          </mxGeometry>
        </mxCell>
        <mxCell id="jbJda18QJr-1W6zUJkBC-106" value="chainage" style="text;html=1;resizable=0;points=[];;align=center;verticalAlign=middle;labelBackgroundColor=none;rounded=0;shadow=0;strokeWidth=1;fontSize=12;" parent="jbJda18QJr-1W6zUJkBC-103" vertex="1" connectable="0">
          <mxGeometry x="0.5" y="49" relative="1" as="geometry">
            <mxPoint x="-68" y="72" as="offset" />
          </mxGeometry>
        </mxCell>
        <mxCell id="WAtbVeIMvl0ufXx72fuo-12" value="Carte" style="swimlane;fontStyle=1;align=center;verticalAlign=top;childLayout=stackLayout;horizontal=1;startSize=26;horizontalStack=0;resizeParent=1;resizeParentMax=0;resizeLast=0;collapsible=1;marginBottom=0;whiteSpace=wrap;html=1;" vertex="1" parent="WIyWlLk6GJQsqaUBKTNV-1">
          <mxGeometry x="130" y="-50" width="160" height="138" as="geometry" />
        </mxCell>
        <mxCell id="WAtbVeIMvl0ufXx72fuo-13" value="#nom : string" style="text;strokeColor=none;fillColor=none;align=left;verticalAlign=top;spacingLeft=4;spacingRight=4;overflow=hidden;rotatable=0;points=[[0,0.5],[1,0.5]];portConstraint=eastwest;whiteSpace=wrap;html=1;fontFamily=Helvetica;fontSize=13;" vertex="1" parent="WAtbVeIMvl0ufXx72fuo-12">
          <mxGeometry y="26" width="160" height="26" as="geometry" />
        </mxCell>
        <mxCell id="WAtbVeIMvl0ufXx72fuo-14" value="cout_piece : int" style="text;strokeColor=none;fillColor=none;align=left;verticalAlign=top;spacingLeft=4;spacingRight=4;overflow=hidden;rotatable=0;points=[[0,0.5],[1,0.5]];portConstraint=eastwest;whiteSpace=wrap;html=1;fontFamily=Helvetica;fontSize=13;" vertex="1" parent="WAtbVeIMvl0ufXx72fuo-12">
          <mxGeometry y="52" width="160" height="26" as="geometry" />
        </mxCell>
        <mxCell id="WAtbVeIMvl0ufXx72fuo-15" value="cout_prod : ressource" style="text;strokeColor=none;fillColor=none;align=left;verticalAlign=top;spacingLeft=4;spacingRight=4;overflow=hidden;rotatable=0;points=[[0,0.5],[1,0.5]];portConstraint=eastwest;whiteSpace=wrap;html=1;fontFamily=Helvetica;fontSize=13;" vertex="1" parent="WAtbVeIMvl0ufXx72fuo-12">
          <mxGeometry y="78" width="160" height="26" as="geometry" />
        </mxCell>
        <mxCell id="WAtbVeIMvl0ufXx72fuo-18" value="" style="line;strokeWidth=1;fillColor=none;align=left;verticalAlign=middle;spacingTop=-1;spacingLeft=3;spacingRight=3;rotatable=0;labelPosition=right;points=[];portConstraint=eastwest;strokeColor=inherit;" vertex="1" parent="WAtbVeIMvl0ufXx72fuo-12">
          <mxGeometry y="104" width="160" height="8" as="geometry" />
        </mxCell>
        <mxCell id="WAtbVeIMvl0ufXx72fuo-19" value="prix_final(Joueur) : int" style="text;strokeColor=none;fillColor=none;align=left;verticalAlign=top;spacingLeft=4;spacingRight=4;overflow=hidden;rotatable=0;points=[[0,0.5],[1,0.5]];portConstraint=eastwest;whiteSpace=wrap;html=1;fontFamily=Helvetica;fontSize=13;" vertex="1" parent="WAtbVeIMvl0ufXx72fuo-12">
          <mxGeometry y="112" width="160" height="26" as="geometry" />
        </mxCell>
        <mxCell id="WAtbVeIMvl0ufXx72fuo-21" value="" style="endArrow=block;endSize=16;endFill=0;html=1;rounded=0;edgeStyle=elbowEdgeStyle;exitX=1;exitY=0.5;exitDx=0;exitDy=0;entryX=0;entryY=0.5;entryDx=0;entryDy=0;" edge="1" parent="WIyWlLk6GJQsqaUBKTNV-1" target="WAtbVeIMvl0ufXx72fuo-13">
          <mxGeometry width="160" relative="1" as="geometry">
            <mxPoint x="70" y="172" as="sourcePoint" />
            <mxPoint x="110" y="10" as="targetPoint" />
          </mxGeometry>
        </mxCell>
        <mxCell id="WAtbVeIMvl0ufXx72fuo-23" value="" style="endArrow=none;shadow=0;strokeWidth=1;rounded=0;endFill=0;entryX=1;entryY=0.5;entryDx=0;entryDy=0;edgeStyle=elbowEdgeStyle;exitX=0;exitY=0.5;exitDx=0;exitDy=0;" edge="1" parent="WIyWlLk6GJQsqaUBKTNV-1">
          <mxGeometry x="0.5" y="41" relative="1" as="geometry">
            <mxPoint x="370" y="-110" as="sourcePoint" />
            <mxPoint x="290" y="-8" as="targetPoint" />
            <mxPoint x="-40" y="32" as="offset" />
          </mxGeometry>
        </mxCell>
        <mxCell id="WAtbVeIMvl0ufXx72fuo-24" value="*" style="resizable=0;align=left;verticalAlign=bottom;labelBackgroundColor=none;fontSize=12;" connectable="0" vertex="1" parent="WAtbVeIMvl0ufXx72fuo-23">
          <mxGeometry x="-1" relative="1" as="geometry">
            <mxPoint x="-10" y="-2" as="offset" />
          </mxGeometry>
        </mxCell>
        <mxCell id="WAtbVeIMvl0ufXx72fuo-25" value="1" style="resizable=0;align=right;verticalAlign=bottom;labelBackgroundColor=none;fontSize=12;" connectable="0" vertex="1" parent="WAtbVeIMvl0ufXx72fuo-23">
          <mxGeometry x="1" relative="1" as="geometry">
            <mxPoint x="40" y="26" as="offset" />
          </mxGeometry>
        </mxCell>
        <mxCell id="WAtbVeIMvl0ufXx72fuo-26" value="possede" style="text;html=1;resizable=0;points=[];;align=center;verticalAlign=middle;labelBackgroundColor=none;rounded=0;shadow=0;strokeWidth=1;fontSize=12;" vertex="1" connectable="0" parent="WAtbVeIMvl0ufXx72fuo-23">
          <mxGeometry x="0.5" y="49" relative="1" as="geometry">
            <mxPoint x="-79" y="-57" as="offset" />
          </mxGeometry>
        </mxCell>
        <mxCell id="WAtbVeIMvl0ufXx72fuo-27" value="Batiments" style="swimlane;fontStyle=1;align=center;verticalAlign=top;childLayout=stackLayout;horizontal=1;startSize=26;horizontalStack=0;resizeParent=1;resizeParentMax=0;resizeLast=0;collapsible=1;marginBottom=0;whiteSpace=wrap;html=1;" vertex="1" parent="WIyWlLk6GJQsqaUBKTNV-1">
          <mxGeometry x="120" y="284" width="170" height="130" as="geometry" />
        </mxCell>
        <mxCell id="WAtbVeIMvl0ufXx72fuo-28" value="#nom : string" style="text;strokeColor=none;fillColor=none;align=left;verticalAlign=top;spacingLeft=4;spacingRight=4;overflow=hidden;rotatable=0;points=[[0,0.5],[1,0.5]];portConstraint=eastwest;whiteSpace=wrap;html=1;fontFamily=Helvetica;fontSize=13;" vertex="1" parent="WAtbVeIMvl0ufXx72fuo-27">
          <mxGeometry y="26" width="170" height="22" as="geometry" />
        </mxCell>
        <mxCell id="WAtbVeIMvl0ufXx72fuo-29" value="age : {1, 2, 3}" style="text;strokeColor=none;fillColor=none;align=left;verticalAlign=top;spacingLeft=4;spacingRight=4;overflow=hidden;rotatable=0;points=[[0,0.5],[1,0.5]];portConstraint=eastwest;whiteSpace=wrap;html=1;fontFamily=Helvetica;fontSize=13;" vertex="1" parent="WAtbVeIMvl0ufXx72fuo-27">
          <mxGeometry y="48" width="170" height="22" as="geometry" />
        </mxCell>
        <mxCell id="WAtbVeIMvl0ufXx72fuo-30" value="enjeu : bool" style="text;strokeColor=none;fillColor=none;align=left;verticalAlign=top;spacingLeft=4;spacingRight=4;overflow=hidden;rotatable=0;points=[[0,0.5],[1,0.5]];portConstraint=eastwest;whiteSpace=wrap;html=1;fontFamily=Helvetica;fontSize=13;" vertex="1" parent="WAtbVeIMvl0ufXx72fuo-27">
          <mxGeometry y="70" width="170" height="26" as="geometry" />
        </mxCell>
        <mxCell id="WAtbVeIMvl0ufXx72fuo-31" value="accessible : bool" style="text;strokeColor=none;fillColor=none;align=left;verticalAlign=top;spacingLeft=4;spacingRight=4;overflow=hidden;rotatable=0;points=[[0,0.5],[1,0.5]];portConstraint=eastwest;whiteSpace=wrap;html=1;fontFamily=Helvetica;fontSize=13;" vertex="1" parent="WAtbVeIMvl0ufXx72fuo-27">
          <mxGeometry y="96" width="170" height="26" as="geometry" />
        </mxCell>
        <mxCell id="WAtbVeIMvl0ufXx72fuo-32" value="" style="line;strokeWidth=1;fillColor=none;align=left;verticalAlign=middle;spacingTop=-1;spacingLeft=3;spacingRight=3;rotatable=0;labelPosition=right;points=[];portConstraint=eastwest;strokeColor=inherit;" vertex="1" parent="WAtbVeIMvl0ufXx72fuo-27">
          <mxGeometry y="122" width="170" height="8" as="geometry" />
        </mxCell>
        <mxCell id="WAtbVeIMvl0ufXx72fuo-37" value="" style="endArrow=block;endSize=16;endFill=0;html=1;rounded=0;exitX=0.5;exitY=0;exitDx=0;exitDy=0;" edge="1" parent="WIyWlLk6GJQsqaUBKTNV-1" source="WAtbVeIMvl0ufXx72fuo-27">
          <mxGeometry width="160" relative="1" as="geometry">
            <mxPoint x="190" y="260" as="sourcePoint" />
            <mxPoint x="205" y="90" as="targetPoint" />
          </mxGeometry>
        </mxCell>
        <mxCell id="WAtbVeIMvl0ufXx72fuo-38" value="" style="endArrow=none;shadow=0;strokeWidth=1;rounded=0;endFill=0;entryX=0;entryY=0.5;entryDx=0;entryDy=0;exitX=0.5;exitY=1;exitDx=0;exitDy=0;" edge="1" parent="WIyWlLk6GJQsqaUBKTNV-1" source="WAtbVeIMvl0ufXx72fuo-27" target="jbJda18QJr-1W6zUJkBC-9">
          <mxGeometry x="0.5" y="41" relative="1" as="geometry">
            <mxPoint x="160" y="500" as="sourcePoint" />
            <mxPoint x="220" y="642" as="targetPoint" />
            <mxPoint x="-40" y="32" as="offset" />
            <Array as="points">
              <mxPoint x="205" y="549" />
            </Array>
          </mxGeometry>
        </mxCell>
        <mxCell id="WAtbVeIMvl0ufXx72fuo-39" value="8" style="resizable=0;align=left;verticalAlign=bottom;labelBackgroundColor=none;fontSize=12;" connectable="0" vertex="1" parent="WAtbVeIMvl0ufXx72fuo-38">
          <mxGeometry x="-1" relative="1" as="geometry">
            <mxPoint x="-25" y="26" as="offset" />
          </mxGeometry>
        </mxCell>
        <mxCell id="WAtbVeIMvl0ufXx72fuo-40" value="*" style="resizable=0;align=right;verticalAlign=bottom;labelBackgroundColor=none;fontSize=12;" connectable="0" vertex="1" parent="WAtbVeIMvl0ufXx72fuo-38">
          <mxGeometry x="1" relative="1" as="geometry">
            <mxPoint x="-9" y="-7" as="offset" />
          </mxGeometry>
        </mxCell>
        <mxCell id="WAtbVeIMvl0ufXx72fuo-41" value="en jeu" style="text;html=1;resizable=0;points=[];;align=center;verticalAlign=middle;labelBackgroundColor=none;rounded=0;shadow=0;strokeWidth=1;fontSize=12;" vertex="1" connectable="0" parent="WAtbVeIMvl0ufXx72fuo-38">
          <mxGeometry x="0.5" y="49" relative="1" as="geometry">
            <mxPoint x="-94" y="31" as="offset" />
          </mxGeometry>
        </mxCell>
        <mxCell id="WAtbVeIMvl0ufXx72fuo-42" value="&lt;i&gt;[ENUM]&lt;/i&gt;&amp;nbsp;RESSOURCES" style="swimlane;fontStyle=1;align=center;verticalAlign=top;childLayout=stackLayout;horizontal=1;startSize=26;horizontalStack=0;resizeParent=1;resizeParentMax=0;resizeLast=0;collapsible=1;marginBottom=0;whiteSpace=wrap;html=1;" vertex="1" parent="WIyWlLk6GJQsqaUBKTNV-1">
          <mxGeometry x="585" y="-10" width="170" height="156" as="geometry" />
        </mxCell>
        <mxCell id="WAtbVeIMvl0ufXx72fuo-43" value="bois" style="text;strokeColor=none;fillColor=none;align=left;verticalAlign=top;spacingLeft=4;spacingRight=4;overflow=hidden;rotatable=0;points=[[0,0.5],[1,0.5]];portConstraint=eastwest;whiteSpace=wrap;html=1;fontFamily=Helvetica;fontSize=13;" vertex="1" parent="WAtbVeIMvl0ufXx72fuo-42">
          <mxGeometry y="26" width="170" height="22" as="geometry" />
        </mxCell>
        <mxCell id="WAtbVeIMvl0ufXx72fuo-44" value="argile" style="text;strokeColor=none;fillColor=none;align=left;verticalAlign=top;spacingLeft=4;spacingRight=4;overflow=hidden;rotatable=0;points=[[0,0.5],[1,0.5]];portConstraint=eastwest;whiteSpace=wrap;html=1;fontFamily=Helvetica;fontSize=13;" vertex="1" parent="WAtbVeIMvl0ufXx72fuo-42">
          <mxGeometry y="48" width="170" height="22" as="geometry" />
        </mxCell>
        <mxCell id="WAtbVeIMvl0ufXx72fuo-45" value="pierre" style="text;strokeColor=none;fillColor=none;align=left;verticalAlign=top;spacingLeft=4;spacingRight=4;overflow=hidden;rotatable=0;points=[[0,0.5],[1,0.5]];portConstraint=eastwest;whiteSpace=wrap;html=1;fontFamily=Helvetica;fontSize=13;" vertex="1" parent="WAtbVeIMvl0ufXx72fuo-42">
          <mxGeometry y="70" width="170" height="26" as="geometry" />
        </mxCell>
        <mxCell id="WAtbVeIMvl0ufXx72fuo-46" value="verre" style="text;strokeColor=none;fillColor=none;align=left;verticalAlign=top;spacingLeft=4;spacingRight=4;overflow=hidden;rotatable=0;points=[[0,0.5],[1,0.5]];portConstraint=eastwest;whiteSpace=wrap;html=1;fontFamily=Helvetica;fontSize=13;" vertex="1" parent="WAtbVeIMvl0ufXx72fuo-42">
          <mxGeometry y="96" width="170" height="26" as="geometry" />
        </mxCell>
        <mxCell id="WAtbVeIMvl0ufXx72fuo-48" value="papyrus" style="text;strokeColor=none;fillColor=none;align=left;verticalAlign=top;spacingLeft=4;spacingRight=4;overflow=hidden;rotatable=0;points=[[0,0.5],[1,0.5]];portConstraint=eastwest;whiteSpace=wrap;html=1;fontFamily=Helvetica;fontSize=13;" vertex="1" parent="WAtbVeIMvl0ufXx72fuo-42">
          <mxGeometry y="122" width="170" height="26" as="geometry" />
        </mxCell>
        <mxCell id="WAtbVeIMvl0ufXx72fuo-47" value="" style="line;strokeWidth=1;fillColor=none;align=left;verticalAlign=middle;spacingTop=-1;spacingLeft=3;spacingRight=3;rotatable=0;labelPosition=right;points=[];portConstraint=eastwest;strokeColor=inherit;" vertex="1" parent="WAtbVeIMvl0ufXx72fuo-42">
          <mxGeometry y="148" width="170" height="8" as="geometry" />
        </mxCell>
        <mxCell id="WAtbVeIMvl0ufXx72fuo-49" value="" style="endArrow=block;endSize=16;endFill=0;html=1;rounded=0;exitX=0.5;exitY=0;exitDx=0;exitDy=0;entryX=0.528;entryY=1;entryDx=0;entryDy=0;entryPerimeter=0;" edge="1" parent="WIyWlLk6GJQsqaUBKTNV-1" target="WAtbVeIMvl0ufXx72fuo-53">
          <mxGeometry width="160" relative="1" as="geometry">
            <mxPoint x="-15.5" y="130" as="sourcePoint" />
            <mxPoint x="-15.5" y="-64" as="targetPoint" />
          </mxGeometry>
        </mxCell>
        <mxCell id="WAtbVeIMvl0ufXx72fuo-50" value="MatiÃ¨res premiÃ¨res" style="swimlane;fontStyle=1;align=center;verticalAlign=top;childLayout=stackLayout;horizontal=1;startSize=26;horizontalStack=0;resizeParent=1;resizeParentMax=0;resizeLast=0;collapsible=1;marginBottom=0;whiteSpace=wrap;html=1;" vertex="1" parent="WIyWlLk6GJQsqaUBKTNV-1">
          <mxGeometry x="-100" y="-150" width="160" height="60" as="geometry" />
        </mxCell>
        <mxCell id="WAtbVeIMvl0ufXx72fuo-51" value="type : Ressource" style="text;strokeColor=none;fillColor=none;align=left;verticalAlign=top;spacingLeft=4;spacingRight=4;overflow=hidden;rotatable=0;points=[[0,0.5],[1,0.5]];portConstraint=eastwest;whiteSpace=wrap;html=1;fontFamily=Helvetica;fontSize=13;" vertex="1" parent="WAtbVeIMvl0ufXx72fuo-50">
          <mxGeometry y="26" width="160" height="26" as="geometry" />
        </mxCell>
        <mxCell id="WAtbVeIMvl0ufXx72fuo-53" value="" style="line;strokeWidth=1;fillColor=none;align=left;verticalAlign=middle;spacingTop=-1;spacingLeft=3;spacingRight=3;rotatable=0;labelPosition=right;points=[];portConstraint=eastwest;strokeColor=inherit;" vertex="1" parent="WAtbVeIMvl0ufXx72fuo-50">
          <mxGeometry y="52" width="160" height="8" as="geometry" />
        </mxCell>
        <mxCell id="WAtbVeIMvl0ufXx72fuo-57" value="" style="endArrow=block;endSize=16;endFill=0;html=1;rounded=0;edgeStyle=elbowEdgeStyle;elbow=vertical;exitX=0.497;exitY=0.003;exitDx=0;exitDy=0;exitPerimeter=0;entryX=0.5;entryY=1;entryDx=0;entryDy=0;" edge="1" parent="WIyWlLk6GJQsqaUBKTNV-1" source="jbJda18QJr-1W6zUJkBC-74" target="WAtbVeIMvl0ufXx72fuo-58">
          <mxGeometry width="160" relative="1" as="geometry">
            <mxPoint x="-20" y="120" as="sourcePoint" />
            <mxPoint x="-220" y="-60" as="targetPoint" />
            <Array as="points">
              <mxPoint x="-230" y="30" />
            </Array>
          </mxGeometry>
        </mxCell>
        <mxCell id="WAtbVeIMvl0ufXx72fuo-58" value="MatiÃ¨res manufacturÃ©es" style="swimlane;fontStyle=1;align=center;verticalAlign=top;childLayout=stackLayout;horizontal=1;startSize=26;horizontalStack=0;resizeParent=1;resizeParentMax=0;resizeLast=0;collapsible=1;marginBottom=0;whiteSpace=wrap;html=1;" vertex="1" parent="WIyWlLk6GJQsqaUBKTNV-1">
          <mxGeometry x="-300" y="-150" width="140" height="60" as="geometry" />
        </mxCell>
        <mxCell id="WAtbVeIMvl0ufXx72fuo-59" value="type : Ressource" style="text;strokeColor=none;fillColor=none;align=left;verticalAlign=top;spacingLeft=4;spacingRight=4;overflow=hidden;rotatable=0;points=[[0,0.5],[1,0.5]];portConstraint=eastwest;whiteSpace=wrap;html=1;fontFamily=Helvetica;fontSize=13;" vertex="1" parent="WAtbVeIMvl0ufXx72fuo-58">
          <mxGeometry y="26" width="140" height="26" as="geometry" />
        </mxCell>
        <mxCell id="WAtbVeIMvl0ufXx72fuo-61" value="" style="line;strokeWidth=1;fillColor=none;align=left;verticalAlign=middle;spacingTop=-1;spacingLeft=3;spacingRight=3;rotatable=0;labelPosition=right;points=[];portConstraint=eastwest;strokeColor=inherit;" vertex="1" parent="WAtbVeIMvl0ufXx72fuo-58">
          <mxGeometry y="52" width="140" height="8" as="geometry" />
        </mxCell>
        <mxCell id="WAtbVeIMvl0ufXx72fuo-62" value="" style="endArrow=block;endSize=16;endFill=0;html=1;rounded=0;exitX=0.5;exitY=0;exitDx=0;exitDy=0;" edge="1" parent="WIyWlLk6GJQsqaUBKTNV-1" source="jbJda18QJr-1W6zUJkBC-74">
          <mxGeometry width="160" relative="1" as="geometry">
            <mxPoint x="-540" y="130" as="sourcePoint" />
            <mxPoint x="-320" y="30" as="targetPoint" />
            <Array as="points">
              <mxPoint x="-15" y="30" />
            </Array>
          </mxGeometry>
        </mxCell>
        <mxCell id="WAtbVeIMvl0ufXx72fuo-63" value="&lt;span style=&quot;font-family: sans-serif; font-size: 14px; text-align: start; text-wrap: nowrap; background-color: rgb(255, 255, 255);&quot;&gt;Civil&lt;/span&gt;" style="swimlane;fontStyle=1;align=center;verticalAlign=top;childLayout=stackLayout;horizontal=1;startSize=26;horizontalStack=0;resizeParent=1;resizeParentMax=0;resizeLast=0;collapsible=1;marginBottom=0;whiteSpace=wrap;html=1;" vertex="1" parent="WIyWlLk6GJQsqaUBKTNV-1">
          <mxGeometry x="-429" y="-10" width="110" height="60" as="geometry" />
        </mxCell>
        <mxCell id="WAtbVeIMvl0ufXx72fuo-64" value="points&amp;nbsp; : int&lt;div style=&quot;font-size: 13px;&quot;&gt;&lt;/div&gt;" style="text;strokeColor=none;fillColor=none;align=left;verticalAlign=top;spacingLeft=4;spacingRight=4;overflow=hidden;rotatable=0;points=[[0,0.5],[1,0.5]];portConstraint=eastwest;whiteSpace=wrap;html=1;fontFamily=Helvetica;fontSize=13;" vertex="1" parent="WAtbVeIMvl0ufXx72fuo-63">
          <mxGeometry y="26" width="110" height="26" as="geometry" />
        </mxCell>
        <mxCell id="WAtbVeIMvl0ufXx72fuo-66" value="" style="line;strokeWidth=1;fillColor=none;align=left;verticalAlign=middle;spacingTop=-1;spacingLeft=3;spacingRight=3;rotatable=0;labelPosition=right;points=[];portConstraint=eastwest;strokeColor=inherit;" vertex="1" parent="WAtbVeIMvl0ufXx72fuo-63">
          <mxGeometry y="52" width="110" height="8" as="geometry" />
        </mxCell>
        <mxCell id="WAtbVeIMvl0ufXx72fuo-67" value="" style="endArrow=block;endSize=16;endFill=0;html=1;rounded=0;edgeStyle=elbowEdgeStyle;exitX=0.497;exitY=0.003;exitDx=0;exitDy=0;exitPerimeter=0;entryX=1;entryY=0.5;entryDx=0;entryDy=0;" edge="1" parent="WIyWlLk6GJQsqaUBKTNV-1" target="WAtbVeIMvl0ufXx72fuo-69">
          <mxGeometry width="160" relative="1" as="geometry">
            <mxPoint x="-100" y="144" as="sourcePoint" />
            <mxPoint x="-360" y="100" as="targetPoint" />
          </mxGeometry>
        </mxCell>
        <mxCell id="WAtbVeIMvl0ufXx72fuo-68" value="&lt;span style=&quot;font-family: sans-serif; font-size: 14px; text-align: start; text-wrap: nowrap; background-color: rgb(255, 255, 255);&quot;&gt;Commerce&lt;/span&gt;" style="swimlane;fontStyle=1;align=center;verticalAlign=top;childLayout=stackLayout;horizontal=1;startSize=26;horizontalStack=0;resizeParent=1;resizeParentMax=0;resizeLast=0;collapsible=1;marginBottom=0;whiteSpace=wrap;html=1;" vertex="1" parent="WIyWlLk6GJQsqaUBKTNV-1">
          <mxGeometry x="-479" y="70" width="160" height="138" as="geometry" />
        </mxCell>
        <mxCell id="WAtbVeIMvl0ufXx72fuo-69" value="&lt;span style=&quot;font-size: 13px; text-wrap: nowrap; background-color: rgb(255, 255, 255);&quot;&gt;production : Ressource&lt;/span&gt;&lt;div style=&quot;font-size: 13px;&quot;&gt;&lt;/div&gt;" style="text;strokeColor=none;fillColor=none;align=left;verticalAlign=top;spacingLeft=4;spacingRight=4;overflow=hidden;rotatable=0;points=[[0,0.5],[1,0.5]];portConstraint=eastwest;whiteSpace=wrap;html=1;fontFamily=Helvetica;fontSize=13;" vertex="1" parent="WAtbVeIMvl0ufXx72fuo-68">
          <mxGeometry y="26" width="160" height="26" as="geometry" />
        </mxCell>
        <mxCell id="WAtbVeIMvl0ufXx72fuo-71" value="&lt;span style=&quot;font-size: 13px; text-wrap: nowrap; background-color: rgb(255, 255, 255);&quot;&gt;points : int&lt;/span&gt;&lt;div style=&quot;font-size: 13px;&quot;&gt;&lt;/div&gt;" style="text;strokeColor=none;fillColor=none;align=left;verticalAlign=top;spacingLeft=4;spacingRight=4;overflow=hidden;rotatable=0;points=[[0,0.5],[1,0.5]];portConstraint=eastwest;whiteSpace=wrap;html=1;fontFamily=Helvetica;fontSize=13;" vertex="1" parent="WAtbVeIMvl0ufXx72fuo-68">
          <mxGeometry y="52" width="160" height="26" as="geometry" />
        </mxCell>
        <mxCell id="WAtbVeIMvl0ufXx72fuo-72" value="&lt;span style=&quot;font-size: 13px; text-wrap: nowrap; background-color: rgb(255, 255, 255);&quot;&gt;argent_apportÃ© : int&lt;/span&gt;&lt;br style=&quot;font-size: 13px;&quot;&gt;&lt;div style=&quot;font-size: 13px;&quot;&gt;&lt;/div&gt;" style="text;strokeColor=none;fillColor=none;align=left;verticalAlign=top;spacingLeft=4;spacingRight=4;overflow=hidden;rotatable=0;points=[[0,0.5],[1,0.5]];portConstraint=eastwest;whiteSpace=wrap;html=1;fontFamily=Helvetica;fontSize=13;" vertex="1" parent="WAtbVeIMvl0ufXx72fuo-68">
          <mxGeometry y="78" width="160" height="26" as="geometry" />
        </mxCell>
        <mxCell id="WAtbVeIMvl0ufXx72fuo-73" value="&lt;span style=&quot;font-size: 13px; text-wrap: nowrap; background-color: rgb(255, 255, 255);&quot;&gt;affecte : Ressource&lt;/span&gt;&lt;br style=&quot;font-size: 13px;&quot;&gt;&lt;div style=&quot;font-size: 13px;&quot;&gt;&lt;/div&gt;" style="text;strokeColor=none;fillColor=none;align=left;verticalAlign=top;spacingLeft=4;spacingRight=4;overflow=hidden;rotatable=0;points=[[0,0.5],[1,0.5]];portConstraint=eastwest;whiteSpace=wrap;html=1;fontFamily=Helvetica;fontSize=13;" vertex="1" parent="WAtbVeIMvl0ufXx72fuo-68">
          <mxGeometry y="104" width="160" height="26" as="geometry" />
        </mxCell>
        <mxCell id="WAtbVeIMvl0ufXx72fuo-70" value="" style="line;strokeWidth=1;fillColor=none;align=left;verticalAlign=middle;spacingTop=-1;spacingLeft=3;spacingRight=3;rotatable=0;labelPosition=right;points=[];portConstraint=eastwest;strokeColor=inherit;" vertex="1" parent="WAtbVeIMvl0ufXx72fuo-68">
          <mxGeometry y="130" width="160" height="8" as="geometry" />
        </mxCell>
        <mxCell id="WAtbVeIMvl0ufXx72fuo-74" value="" style="endArrow=block;endSize=16;endFill=0;html=1;rounded=0;edgeStyle=elbowEdgeStyle;exitX=0.497;exitY=0.003;exitDx=0;exitDy=0;exitPerimeter=0;entryX=1;entryY=0.5;entryDx=0;entryDy=0;" edge="1" parent="WIyWlLk6GJQsqaUBKTNV-1" target="WAtbVeIMvl0ufXx72fuo-76">
          <mxGeometry width="160" relative="1" as="geometry">
            <mxPoint x="-100" y="242" as="sourcePoint" />
            <mxPoint x="-290" y="300" as="targetPoint" />
          </mxGeometry>
        </mxCell>
        <mxCell id="WAtbVeIMvl0ufXx72fuo-75" value="&lt;span style=&quot;font-family: sans-serif; font-size: 14px; text-align: start; text-wrap: nowrap; background-color: rgb(255, 255, 255);&quot;&gt;Guilde&lt;/span&gt;" style="swimlane;fontStyle=1;align=center;verticalAlign=top;childLayout=stackLayout;horizontal=1;startSize=26;horizontalStack=0;resizeParent=1;resizeParentMax=0;resizeLast=0;collapsible=1;marginBottom=0;whiteSpace=wrap;html=1;" vertex="1" parent="WIyWlLk6GJQsqaUBKTNV-1">
          <mxGeometry x="-409" y="260" width="160" height="86" as="geometry" />
        </mxCell>
        <mxCell id="WAtbVeIMvl0ufXx72fuo-76" value="&lt;span style=&quot;font-size: 13px; text-wrap: nowrap; background-color: rgb(255, 255, 255);&quot;&gt;piece : bool&lt;/span&gt;&lt;div style=&quot;font-size: 13px;&quot;&gt;&lt;/div&gt;" style="text;strokeColor=none;fillColor=none;align=left;verticalAlign=top;spacingLeft=4;spacingRight=4;overflow=hidden;rotatable=0;points=[[0,0.5],[1,0.5]];portConstraint=eastwest;whiteSpace=wrap;html=1;fontFamily=Helvetica;fontSize=13;" vertex="1" parent="WAtbVeIMvl0ufXx72fuo-75">
          <mxGeometry y="26" width="160" height="26" as="geometry" />
        </mxCell>
        <mxCell id="WAtbVeIMvl0ufXx72fuo-77" value="&lt;span style=&quot;font-size: 13px; text-wrap: nowrap; background-color: rgb(255, 255, 255);&quot;&gt;points : int&lt;/span&gt;&lt;div style=&quot;font-size: 13px;&quot;&gt;&lt;/div&gt;" style="text;strokeColor=none;fillColor=none;align=left;verticalAlign=top;spacingLeft=4;spacingRight=4;overflow=hidden;rotatable=0;points=[[0,0.5],[1,0.5]];portConstraint=eastwest;whiteSpace=wrap;html=1;fontFamily=Helvetica;fontSize=13;" vertex="1" parent="WAtbVeIMvl0ufXx72fuo-75">
          <mxGeometry y="52" width="160" height="26" as="geometry" />
        </mxCell>
        <mxCell id="WAtbVeIMvl0ufXx72fuo-80" value="" style="line;strokeWidth=1;fillColor=none;align=left;verticalAlign=middle;spacingTop=-1;spacingLeft=3;spacingRight=3;rotatable=0;labelPosition=right;points=[];portConstraint=eastwest;strokeColor=inherit;" vertex="1" parent="WAtbVeIMvl0ufXx72fuo-75">
          <mxGeometry y="78" width="160" height="8" as="geometry" />
        </mxCell>
        <mxCell id="WAtbVeIMvl0ufXx72fuo-81" value="&lt;span style=&quot;font-family: sans-serif; font-size: 14px; text-align: start; text-wrap: nowrap; background-color: rgb(255, 255, 255);&quot;&gt;Militaire&lt;/span&gt;" style="swimlane;fontStyle=1;align=center;verticalAlign=top;childLayout=stackLayout;horizontal=1;startSize=26;horizontalStack=0;resizeParent=1;resizeParentMax=0;resizeLast=0;collapsible=1;marginBottom=0;whiteSpace=wrap;html=1;" vertex="1" parent="WIyWlLk6GJQsqaUBKTNV-1">
          <mxGeometry x="-100" y="340" width="120" height="60" as="geometry" />
        </mxCell>
        <mxCell id="WAtbVeIMvl0ufXx72fuo-82" value="&lt;span style=&quot;font-size: 13px; text-wrap: nowrap; background-color: rgb(255, 255, 255);&quot;&gt;bouclier : int&lt;/span&gt;&lt;div style=&quot;font-size: 13px;&quot;&gt;&lt;/div&gt;" style="text;strokeColor=none;fillColor=none;align=left;verticalAlign=top;spacingLeft=4;spacingRight=4;overflow=hidden;rotatable=0;points=[[0,0.5],[1,0.5]];portConstraint=eastwest;whiteSpace=wrap;html=1;fontFamily=Helvetica;fontSize=13;" vertex="1" parent="WAtbVeIMvl0ufXx72fuo-81">
          <mxGeometry y="26" width="120" height="26" as="geometry" />
        </mxCell>
        <mxCell id="WAtbVeIMvl0ufXx72fuo-84" value="" style="line;strokeWidth=1;fillColor=none;align=left;verticalAlign=middle;spacingTop=-1;spacingLeft=3;spacingRight=3;rotatable=0;labelPosition=right;points=[];portConstraint=eastwest;strokeColor=inherit;" vertex="1" parent="WAtbVeIMvl0ufXx72fuo-81">
          <mxGeometry y="52" width="120" height="8" as="geometry" />
        </mxCell>
        <mxCell id="WAtbVeIMvl0ufXx72fuo-85" value="" style="endArrow=block;endSize=16;endFill=0;html=1;rounded=0;" edge="1" parent="WIyWlLk6GJQsqaUBKTNV-1">
          <mxGeometry width="160" relative="1" as="geometry">
            <mxPoint x="-50" y="340" as="sourcePoint" />
            <mxPoint x="-50" y="260" as="targetPoint" />
          </mxGeometry>
        </mxCell>
        <mxCell id="WAtbVeIMvl0ufXx72fuo-86" value="" style="endArrow=none;shadow=0;strokeWidth=1;rounded=0;endFill=0;entryX=-0.003;entryY=0.737;entryDx=0;entryDy=0;entryPerimeter=0;" edge="1" parent="WIyWlLk6GJQsqaUBKTNV-1" target="jbJda18QJr-1W6zUJkBC-8">
          <mxGeometry x="0.5" y="41" relative="1" as="geometry">
            <mxPoint x="60" y="260" as="sourcePoint" />
            <mxPoint x="455" y="575" as="targetPoint" />
            <mxPoint x="-40" y="32" as="offset" />
            <Array as="points">
              <mxPoint x="60" y="581" />
            </Array>
          </mxGeometry>
        </mxCell>
        <mxCell id="WAtbVeIMvl0ufXx72fuo-87" value="20" style="resizable=0;align=left;verticalAlign=bottom;labelBackgroundColor=none;fontSize=12;" connectable="0" vertex="1" parent="WAtbVeIMvl0ufXx72fuo-86">
          <mxGeometry x="-1" relative="1" as="geometry">
            <mxPoint y="20" as="offset" />
          </mxGeometry>
        </mxCell>
        <mxCell id="WAtbVeIMvl0ufXx72fuo-88" value="*" style="resizable=0;align=right;verticalAlign=bottom;labelBackgroundColor=none;fontSize=12;" connectable="0" vertex="1" parent="WAtbVeIMvl0ufXx72fuo-86">
          <mxGeometry x="1" relative="1" as="geometry">
            <mxPoint x="-9" y="-7" as="offset" />
          </mxGeometry>
        </mxCell>
        <mxCell id="WAtbVeIMvl0ufXx72fuo-89" value="en jeu (Ã¢ge 3)" style="text;html=1;resizable=0;points=[];;align=center;verticalAlign=middle;labelBackgroundColor=none;rounded=0;shadow=0;strokeWidth=1;fontSize=12;" vertex="1" connectable="0" parent="WAtbVeIMvl0ufXx72fuo-86">
          <mxGeometry x="0.5" y="49" relative="1" as="geometry">
            <mxPoint x="-146" y="38" as="offset" />
          </mxGeometry>
        </mxCell>
        <mxCell id="WAtbVeIMvl0ufXx72fuo-90" value="" style="endArrow=none;shadow=0;strokeWidth=1;rounded=0;endFill=0;entryX=0;entryY=0.5;entryDx=0;entryDy=0;" edge="1" parent="WIyWlLk6GJQsqaUBKTNV-1">
          <mxGeometry x="0.5" y="41" relative="1" as="geometry">
            <mxPoint x="50" y="260" as="sourcePoint" />
            <mxPoint x="455" y="605" as="targetPoint" />
            <mxPoint x="-40" y="32" as="offset" />
            <Array as="points">
              <mxPoint x="50" y="605" />
            </Array>
          </mxGeometry>
        </mxCell>
        <mxCell id="WAtbVeIMvl0ufXx72fuo-91" value="20" style="resizable=0;align=left;verticalAlign=bottom;labelBackgroundColor=none;fontSize=12;" connectable="0" vertex="1" parent="WAtbVeIMvl0ufXx72fuo-90">
          <mxGeometry x="-1" relative="1" as="geometry">
            <mxPoint x="-20" y="20" as="offset" />
          </mxGeometry>
        </mxCell>
        <mxCell id="WAtbVeIMvl0ufXx72fuo-92" value="*" style="resizable=0;align=right;verticalAlign=bottom;labelBackgroundColor=none;fontSize=12;" connectable="0" vertex="1" parent="WAtbVeIMvl0ufXx72fuo-90">
          <mxGeometry x="1" relative="1" as="geometry">
            <mxPoint x="-9" y="-7" as="offset" />
          </mxGeometry>
        </mxCell>
        <mxCell id="WAtbVeIMvl0ufXx72fuo-93" value="en jeu (Ã¢ge 2)" style="text;html=1;resizable=0;points=[];;align=center;verticalAlign=middle;labelBackgroundColor=none;rounded=0;shadow=0;strokeWidth=1;fontSize=12;" vertex="1" connectable="0" parent="WAtbVeIMvl0ufXx72fuo-90">
          <mxGeometry x="0.5" y="49" relative="1" as="geometry">
            <mxPoint x="-168" y="42" as="offset" />
          </mxGeometry>
        </mxCell>
        <mxCell id="WAtbVeIMvl0ufXx72fuo-94" value="" style="endArrow=none;shadow=0;strokeWidth=1;rounded=0;endFill=0;entryX=0;entryY=0.5;entryDx=0;entryDy=0;" edge="1" parent="WIyWlLk6GJQsqaUBKTNV-1">
          <mxGeometry x="0.5" y="41" relative="1" as="geometry">
            <mxPoint x="30" y="260" as="sourcePoint" />
            <mxPoint x="455" y="625" as="targetPoint" />
            <mxPoint x="-40" y="32" as="offset" />
            <Array as="points">
              <mxPoint x="30" y="625" />
            </Array>
          </mxGeometry>
        </mxCell>
        <mxCell id="WAtbVeIMvl0ufXx72fuo-95" value="20" style="resizable=0;align=left;verticalAlign=bottom;labelBackgroundColor=none;fontSize=12;" connectable="0" vertex="1" parent="WAtbVeIMvl0ufXx72fuo-94">
          <mxGeometry x="-1" relative="1" as="geometry">
            <mxPoint x="-20" y="26" as="offset" />
          </mxGeometry>
        </mxCell>
        <mxCell id="WAtbVeIMvl0ufXx72fuo-96" value="*" style="resizable=0;align=right;verticalAlign=bottom;labelBackgroundColor=none;fontSize=12;" connectable="0" vertex="1" parent="WAtbVeIMvl0ufXx72fuo-94">
          <mxGeometry x="1" relative="1" as="geometry">
            <mxPoint x="-9" y="-7" as="offset" />
          </mxGeometry>
        </mxCell>
        <mxCell id="WAtbVeIMvl0ufXx72fuo-97" value="en jeu (Ã¢ge 1)" style="text;html=1;resizable=0;points=[];;align=center;verticalAlign=middle;labelBackgroundColor=none;rounded=0;shadow=0;strokeWidth=1;fontSize=12;" vertex="1" connectable="0" parent="WAtbVeIMvl0ufXx72fuo-94">
          <mxGeometry x="0.5" y="49" relative="1" as="geometry">
            <mxPoint x="-217" y="64" as="offset" />
          </mxGeometry>
        </mxCell>
      </root>
    </mxGraphModel>
  </diagram>
</mxfile>
